<svg width="11" height="11" viewBox="0 0 11 11" fill="none" xmlns="http://www.w3.org/2000/svg">
<path d="M7.86384 9.59598C7.07812 10.0558 6.21875 10.2857 5.28571 10.2857C4.35268 10.2857 3.49107 10.0558 2.70089 9.59598C1.91518 9.13616 1.29241 8.51116 0.832589 7.72098C0.372768 6.93527 0.142857 6.07589 0.142857 5.14286C0.142857 4.20982 0.372768 3.34821 0.832589 2.55804C1.29241 1.77232 1.91518 1.14955 2.70089 0.689732C3.49107 0.22991 4.35268 -2.90564e-07 5.28571 -2.49779e-07C6.21875 -2.08995e-07 7.07813 0.229911 7.86384 0.689732C8.65402 1.14955 9.27902 1.77232 9.73884 2.55804C10.1987 3.34821 10.4286 4.20982 10.4286 5.14286C10.4286 6.07589 10.1987 6.93527 9.73884 7.72098C9.27902 8.51116 8.65402 9.13616 7.86384 9.59598Z" fill="white"/>
</svg>
